<?xml version="1.0"?>
<svg xmlns="http://www.w3.org/2000/svg" xmlns:xlink="http://www.w3.org/1999/xlink" xmlns:svgjs="http://svgjs.com/svgjs" version="1.1" width="512" height="512" x="0" y="0" viewBox="0 0 27.964 27.964" style="enable-background:new 0 0 512 512" xml:space="preserve" class=""><g>
<g xmlns="http://www.w3.org/2000/svg">
	<g id="c126_exclamation">
		<path d="M13.982,0.001C6.259,0.001,0,6.259,0,13.984c0,7.721,6.259,13.98,13.982,13.98c7.722,0,13.982-6.26,13.982-13.98    C27.965,6.259,21.704,0.001,13.982,0.001z M13.982,26.533c-6.933,0-12.551-5.619-12.551-12.549    c0-6.935,5.618-12.552,12.551-12.552c6.931,0,12.55,5.617,12.55,12.552C26.532,20.914,20.913,26.533,13.982,26.533z" fill="#203c86" data-original="#000000" style="" class=""/>
		<rect x="12.004" y="10.551" width="3.931" height="12.649" fill="#203c86" data-original="#000000" style="" class=""/>
		<path d="M13.995,5.072c-1.265,0-2.095,0.852-2.095,1.963c0,1.087,0.802,1.964,2.044,1.964c1.317,0,2.119-0.877,2.119-1.964    C16.037,5.924,15.262,5.072,13.995,5.072z" fill="#203c86" data-original="#000000" style="" class=""/>
	</g>
	<g id="Capa_1_139_">
	</g>
</g>
<g xmlns="http://www.w3.org/2000/svg">
</g>
<g xmlns="http://www.w3.org/2000/svg">
</g>
<g xmlns="http://www.w3.org/2000/svg">
</g>
<g xmlns="http://www.w3.org/2000/svg">
</g>
<g xmlns="http://www.w3.org/2000/svg">
</g>
<g xmlns="http://www.w3.org/2000/svg">
</g>
<g xmlns="http://www.w3.org/2000/svg">
</g>
<g xmlns="http://www.w3.org/2000/svg">
</g>
<g xmlns="http://www.w3.org/2000/svg">
</g>
<g xmlns="http://www.w3.org/2000/svg">
</g>
<g xmlns="http://www.w3.org/2000/svg">
</g>
<g xmlns="http://www.w3.org/2000/svg">
</g>
<g xmlns="http://www.w3.org/2000/svg">
</g>
<g xmlns="http://www.w3.org/2000/svg">
</g>
<g xmlns="http://www.w3.org/2000/svg">
</g>
</g></svg>
